<?xml version="1.0" standalone="no"?><!DOCTYPE svg PUBLIC "-//W3C//DTD SVG 1.1//EN" "http://www.w3.org/Graphics/SVG/1.1/DTD/svg11.dtd"><svg t="1561306045882" class="icon" viewBox="0 0 1025 1024" version="1.1" xmlns="http://www.w3.org/2000/svg" p-id="7008" xmlns:xlink="http://www.w3.org/1999/xlink" width="200.1953125" height="200"><defs><style type="text/css"></style></defs><path d="M448.54272 448h128v128H448.54272z" p-id="7009"></path><path d="M992.54272 32C966.94272 12.8 934.94272 0 896.54272 0c-96 0-236.8 64-384 179.2C365.34272 64 224.54272 0 128.54272 0 90.14272 0 58.14272 12.8 32.54272 32-44.25728 108.8 19.74272 307.2 173.34272 512 19.74272 716.8-44.25728 915.2 32.54272 992c25.6 19.2 57.6 32 96 32 96 0 236.8-64 384-179.2 147.2 108.8 288 179.2 384 179.2 38.4 0 70.4-12.8 96-32 76.8-76.8 12.8-275.2-140.8-480 153.6-204.8 217.6-403.2 140.8-480zM896.54272 64c12.8 0 38.4 0 51.2 12.8 38.4 38.4 0 198.4-140.8 384-32-44.8-70.4-83.2-115.2-128S608.54272 256 563.74272 217.6C704.54272 115.2 826.14272 64 896.54272 64z m-128 448c-38.4 44.8-76.8 89.6-121.6 134.4-44.8 44.8-89.6 83.2-134.4 121.6-44.8-38.4-89.6-76.8-134.4-121.6C333.34272 601.6 294.94272 556.8 256.54272 512c38.4-44.8 76.8-89.6 121.6-134.4C422.94272 332.8 467.74272 294.4 512.54272 256c44.8 38.4 89.6 76.8 134.4 121.6 44.8 44.8 83.2 89.6 121.6 134.4zM77.34272 76.8c12.8-12.8 32-12.8 51.2-12.8 70.4 0 192 51.2 332.8 153.6-44.8 32-83.2 70.4-128 115.2s-83.2 83.2-115.2 128C83.74272 275.2 38.94272 121.6 77.34272 76.8zM128.54272 960c-12.8 0-38.4 0-51.2-12.8-38.4-38.4 0-198.4 140.8-384 32 44.8 70.4 83.2 115.2 128s83.2 76.8 128 115.2C320.54272 908.8 198.94272 960 128.54272 960z m819.2-12.8c-12.8 12.8-32 12.8-51.2 12.8-70.4 0-192-51.2-332.8-153.6 44.8-32 83.2-70.4 128-115.2s83.2-83.2 115.2-128c134.4 185.6 179.2 339.2 140.8 384z" p-id="7010"></path></svg>