<svg class="icon" width="128" height="128" xmlns="http://www.w3.org/2000/svg"><path fill="#333333" d="M546.133333 574.395733V853.333333h-68.266666v-278.9376l-112.401067 112.401067-48.264533-48.264533L512 443.733333l194.798933 194.798934-48.264533 48.264533L546.133333 574.395733zM921.6 614.4a238.933333 238.933333 0 0 1-238.933333 238.933333v-68.266666a170.666667 170.666667 0 0 0 28.4672-338.944l-28.8768-4.881067 0.4096-29.2864V409.6a170.666667 170.666667 0 1 0-341.333334 2.389333l0.4096 29.252267-28.8768 4.846933A170.734933 170.734933 0 0 0 341.333333 785.066667v68.266666a238.933333 238.933333 0 0 1-67.003733-468.309333 238.933333 238.933333 0 0 1 475.3408 0A239.069867 239.069867 0 0 1 921.6 614.4z" /></svg>